<svg width="48" height="48" viewBox="0 0 48 48" fill="none" xmlns="http://www.w3.org/2000/svg">
<g clip-path="url(#clip0_3_11)">
<path fill-rule="evenodd" clip-rule="evenodd" d="M31.031 15.0298H21.863C19.4851 15.0298 18.623 15.2774 17.7542 15.7421C16.8962 16.1981 16.1946 16.901 15.7402 17.76C15.2755 18.6259 15.0278 19.488 15.0278 21.8659V31.0339H4.9728C3.2448 31.0339 2.61792 30.8544 1.98432 30.5155C1.36043 30.184 0.849924 29.6735 0.5184 29.0496C0.18048 28.4141 0 27.7872 0 26.0592V4.9728C0 3.2448 0.18048 2.61792 0.5184 1.98432C0.849515 1.36021 1.35969 0.849372 1.98336 0.51744C2.61792 0.18048 3.2448 0 4.9728 0H26.0592C27.7872 0 28.4141 0.18048 29.0477 0.5184C29.6716 0.849924 30.1821 1.36043 30.5136 1.98432C30.8515 2.61792 31.032 3.2448 31.032 4.9728L31.031 15.0298Z" fill="#A8DBFB"/>
<path d="M13.8979 7.2192C13.8979 6.76128 13.5187 6.39072 13.0502 6.39072C12.5818 6.39072 12.2026 6.76224 12.2026 7.2192V10.9094L7.26336 6.06336C7.10365 5.90681 6.88892 5.81912 6.66528 5.81912C6.44164 5.81912 6.22691 5.90681 6.0672 6.06336C5.90592 6.21696 5.81952 6.42816 5.81952 6.64896C5.81952 6.86976 5.91552 7.08384 6.0672 7.23744L11.0064 12.0854H7.248C6.77952 12.0854 6.40032 12.457 6.40032 12.9178C6.40032 13.3786 6.77952 13.7462 7.248 13.7462H13.0531C13.1651 13.7477 13.2762 13.7262 13.3795 13.6829C13.5859 13.6003 13.751 13.439 13.8374 13.2317C13.8854 13.1338 13.9008 13.0253 13.9008 12.9168L13.9046 7.22016L13.8979 7.2192Z" fill="#679FD4"/>
<path fill-rule="evenodd" clip-rule="evenodd" d="M21.9408 16.969H43.0272C44.7552 16.969 45.3821 17.1494 46.0157 17.4902C46.6378 17.8205 47.1523 18.3302 47.4816 18.9562C47.8195 19.5859 48 20.2138 48 21.9418V43.0272C48 44.7552 47.8205 45.3821 47.4816 46.0157C47.1501 46.6396 46.6396 47.1501 46.0157 47.4816C45.3821 47.8195 44.7562 48 43.0272 48H21.9408C20.2128 48 19.5859 47.8205 18.9523 47.4816C18.3302 47.1514 17.8195 46.6368 17.4864 46.0157C17.1485 45.3821 16.968 44.7562 16.968 43.0272V21.9408C16.968 20.2128 17.1485 19.5859 17.4864 18.9523C17.8205 18.3302 18.3312 17.8195 18.9523 17.4864C19.5859 17.1485 20.2128 16.968 21.9408 16.968V16.969Z" fill="#2D84D6"/>
<path fill-rule="evenodd" clip-rule="evenodd" d="M39.84 24.96C40.8979 24.96 41.76 25.8221 41.76 26.88C41.76 27.9379 40.8979 28.8 39.84 28.8C38.7821 28.8 37.92 27.9379 37.92 26.88C37.92 25.8221 38.7821 24.96 39.84 24.96ZM29.376 37.44H23.2858C23.1898 37.44 23.1207 37.3949 23.0794 37.32C23.0381 37.2451 23.0381 37.1587 23.0832 37.0877L29.3942 26.5085C29.4173 26.4756 29.4479 26.4488 29.4835 26.4302C29.5191 26.4117 29.5586 26.402 29.5987 26.402C29.6389 26.402 29.6784 26.4117 29.714 26.4302C29.7496 26.4488 29.7802 26.4756 29.8032 26.5085L33.4819 32.6736L35.9491 30.1536C35.9942 30.1056 36.0547 30.0826 36.1181 30.0826H36.1258C36.193 30.0826 36.2573 30.1114 36.2986 30.1651L42.1546 37.0099C42.2218 37.0512 42.2602 37.1251 42.2602 37.2048C42.2602 37.3325 42.1517 37.4371 42.024 37.4371H29.376V37.4333V37.44Z" fill="white"/>
</g>
<defs>
<clipPath id="clip0_3_11">
<rect width="48" height="48" fill="white"/>
</clipPath>
</defs>
</svg>
