<svg width="48" height="48" viewBox="0 0 48 48" fill="none" xmlns="http://www.w3.org/2000/svg">
<g clip-path="url(#clip0_3_10)">
<path fill-rule="evenodd" clip-rule="evenodd" d="M31.031 15.0298H21.863C19.4851 15.0298 18.623 15.2774 17.7542 15.7421C16.8962 16.1981 16.1946 16.901 15.7402 17.76C15.2755 18.6259 15.0278 19.488 15.0278 21.8659V31.0339H4.9728C3.2448 31.0339 2.61792 30.8544 1.98432 30.5155C1.36043 30.184 0.849924 29.6735 0.5184 29.0496C0.18048 28.4141 0 27.7872 0 26.0592V4.9728C0 3.2448 0.18048 2.61792 0.5184 1.98432C0.849515 1.36021 1.35969 0.849372 1.98336 0.51744C2.61792 0.18048 3.2448 0 4.9728 0H26.0592C27.7872 0 28.4141 0.18048 29.0477 0.5184C29.6716 0.849924 30.1821 1.36043 30.5136 1.98432C30.8515 2.61792 31.032 3.2448 31.032 4.9728L31.031 15.0298Z" fill="#A8CCFB"/>
<path d="M13.8979 7.2192C13.8979 6.76128 13.5187 6.39072 13.0502 6.39072C12.5818 6.39072 12.2026 6.76224 12.2026 7.2192V10.9094L7.26336 6.06336C7.10365 5.90681 6.88892 5.81912 6.66528 5.81912C6.44164 5.81912 6.22691 5.90681 6.0672 6.06336C5.90592 6.21696 5.81952 6.42816 5.81952 6.64896C5.81952 6.86976 5.91552 7.08384 6.0672 7.23744L11.0064 12.0854H7.248C6.77952 12.0854 6.40032 12.457 6.40032 12.9178C6.40032 13.3786 6.77952 13.7462 7.248 13.7462H13.0531C13.1651 13.7477 13.2762 13.7262 13.3795 13.6829C13.5859 13.6003 13.751 13.439 13.8374 13.2317C13.8854 13.1338 13.9008 13.0253 13.9008 12.9168L13.9046 7.22016L13.8979 7.2192Z" fill="#015FB7"/>
<path fill-rule="evenodd" clip-rule="evenodd" d="M21.9408 16.969H43.0272C44.7552 16.969 45.3821 17.1494 46.0157 17.4902C46.6378 17.8205 47.1523 18.3302 47.4816 18.9562C47.8195 19.5859 48 20.2138 48 21.9418V43.0272C48 44.7552 47.8205 45.3821 47.4816 46.0157C47.1501 46.6396 46.6396 47.1501 46.0157 47.4816C45.3821 47.8195 44.7562 48 43.0272 48H21.9408C20.2128 48 19.5859 47.8205 18.9523 47.4816C18.3302 47.1514 17.8195 46.6368 17.4864 46.0157C17.1485 45.3821 16.968 44.7562 16.968 43.0272V21.9408C16.968 20.2128 17.1485 19.5859 17.4864 18.9523C17.8205 18.3302 18.3312 17.8195 18.9523 17.4864C19.5859 17.1485 20.2128 16.968 21.9408 16.968V16.969Z" fill="#2550DE"/>
<path fill-rule="evenodd" clip-rule="evenodd" d="M39.84 24.96C40.8979 24.96 41.76 25.8221 41.76 26.88C41.76 27.9379 40.8979 28.8 39.84 28.8C38.7821 28.8 37.92 27.9379 37.92 26.88C37.92 25.8221 38.7821 24.96 39.84 24.96ZM29.376 37.44H23.2858C23.1898 37.44 23.1207 37.3949 23.0794 37.32C23.0381 37.2451 23.0381 37.1587 23.0832 37.0877L29.3942 26.5085C29.4173 26.4756 29.4479 26.4488 29.4835 26.4302C29.5191 26.4117 29.5586 26.402 29.5987 26.402C29.6389 26.402 29.6784 26.4117 29.714 26.4302C29.7496 26.4488 29.7802 26.4756 29.8032 26.5085L33.4819 32.6736L35.9491 30.1536C35.9942 30.1056 36.0547 30.0826 36.1181 30.0826H36.1258C36.193 30.0826 36.2573 30.1114 36.2986 30.1651L42.1546 37.0099C42.2218 37.0512 42.2602 37.1251 42.2602 37.2048C42.2602 37.3325 42.1517 37.4371 42.024 37.4371H29.376V37.4333V37.44Z" fill="#2550DE"/>
<path d="M21.0568 39V30.2727H24.0057C24.6903 30.2727 25.25 30.3963 25.6847 30.6435C26.1222 30.8878 26.446 31.2188 26.6562 31.6364C26.8665 32.054 26.9716 32.5199 26.9716 33.0341C26.9716 33.5483 26.8665 34.0156 26.6562 34.4361C26.4489 34.8565 26.1278 35.1918 25.6932 35.4418C25.2585 35.6889 24.7017 35.8125 24.0227 35.8125H21.9091V34.875H23.9886C24.4574 34.875 24.8338 34.794 25.1179 34.6321C25.402 34.4702 25.608 34.2514 25.7358 33.9759C25.8665 33.6974 25.9318 33.3835 25.9318 33.0341C25.9318 32.6847 25.8665 32.3722 25.7358 32.0966C25.608 31.821 25.4006 31.6051 25.1136 31.4489C24.8267 31.2898 24.446 31.2102 23.9716 31.2102H22.1136V39H21.0568ZM35.5945 30.2727V39H34.5717L29.8161 32.1477H29.7308V39H28.674V30.2727H29.6967L34.4695 37.142H34.5547V30.2727H35.5945ZM43.6751 33C43.5813 32.7131 43.4577 32.456 43.3043 32.2287C43.1538 31.9986 42.9734 31.8026 42.7631 31.6406C42.5558 31.4787 42.32 31.3551 42.0558 31.2699C41.7915 31.1847 41.5018 31.142 41.1864 31.142C40.6694 31.142 40.1992 31.2756 39.7759 31.5426C39.3526 31.8097 39.016 32.2031 38.766 32.723C38.516 33.2429 38.391 33.8807 38.391 34.6364C38.391 35.392 38.5174 36.0298 38.7702 36.5497C39.0231 37.0696 39.3654 37.4631 39.7972 37.7301C40.229 37.9972 40.7148 38.1307 41.2546 38.1307C41.7546 38.1307 42.195 38.0241 42.5756 37.8111C42.9592 37.5952 43.2575 37.2912 43.4705 36.8991C43.6864 36.5043 43.7944 36.0398 43.7944 35.5057L44.1183 35.5739H41.4933V34.6364H44.8171V35.5739C44.8171 36.2926 44.6637 36.9176 44.3569 37.4489C44.0529 37.9801 43.6325 38.392 43.0955 38.6847C42.5614 38.9744 41.9478 39.1193 41.2546 39.1193C40.4819 39.1193 39.8029 38.9375 39.2177 38.5739C38.6353 38.2102 38.1808 37.6932 37.854 37.0227C37.5302 36.3523 37.3683 35.5568 37.3683 34.6364C37.3683 33.946 37.4606 33.3253 37.6452 32.7741C37.8327 32.2202 38.0969 31.7486 38.4379 31.3594C38.7788 30.9702 39.1822 30.6719 39.6481 30.4645C40.114 30.2571 40.6268 30.1534 41.1864 30.1534C41.6467 30.1534 42.0756 30.223 42.4734 30.3622C42.8739 30.4986 43.2305 30.6932 43.543 30.946C43.8583 31.196 44.1211 31.4957 44.3313 31.8452C44.5415 32.1918 44.6864 32.5767 44.766 33H43.6751Z" fill="white"/>
</g>
<defs>
<clipPath id="clip0_3_10">
<rect width="48" height="48" fill="white"/>
</clipPath>
</defs>
</svg>
